<?xml version="1.0" encoding="utf-8"?>
<!-- Generator: Adobe Illustrator 23.0.1, SVG Export Plug-In . SVG Version: 6.00 Build 0)  -->
<svg version="1.1" id="Layer_1" xmlns="http://www.w3.org/2000/svg" xmlns:xlink="http://www.w3.org/1999/xlink" x="0px" y="0px"
	 viewBox="0 0 100 100" style="enable-background:new 0 0 100 100;" xml:space="preserve">
<g>
	<path d="M32.49,62.52c-2.39,0-4.39-1.87-4.57-4.3v-4.61h8.91v3.78c0,0.82,0.65,1.48,1.48,1.48s1.48-0.65,1.48-1.48v-3.48
		l-9.82-6.35c-1.26-0.82-2.04-2.26-2.04-3.74v-6.57C28.1,34.87,30.1,33,32.49,33h11.65c2.39,0,4.39,1.87,4.56,4.26v4.61H39.8v-3.96
		c0-0.83-0.65-1.48-1.48-1.48s-1.48,0.65-1.48,1.48v3.69L46.67,48c1.26,0.78,2.04,2.22,2.04,3.7v6.52c-0.17,2.44-2.17,4.3-4.56,4.3
		H32.49z"/>
	<path d="M68.42,67c-2.96-0.26-5.22-2.74-5.22-5.65v-0.48c-0.26,1-1.18,1.65-2.17,1.65h-5.26c-2.35,0-4.35-1.87-4.44-4.22V37.26
		c0.09-2.39,2.09-4.26,4.44-4.26h11.87c2.39,0,4.35,1.87,4.44,4.26v21c-0.13,2.39-2.13,4.26-4.56,4.26c0.3,0.09,0.61,0.09,0.87,0.09
		h3.7V67H68.42z M63.2,57.39V37.91c0-0.83-0.7-1.48-1.52-1.48c-0.78,0-1.44,0.65-1.44,1.48v19.48c0,0.82,0.65,1.48,1.44,1.48
		C62.51,58.87,63.2,58.22,63.2,57.39z"/>
</g>
</svg>
